HIERARCHY
ROOT Hips
{
    OFFSET 0.0 0.0 0.0
    CHANNELS 6 Xposition Yposition Zposition Zrotation Xrotation Yrotation
    JOINT Spine
    {
        OFFSET 0.0 5.0 0.0
        CHANNELS 3 Zrotation Xrotation Yrotation
        JOINT Chest
        {
            OFFSET 0.0 5.0 0.0
            CHANNELS 3 Zrotation Xrotation Yrotation
            JOINT Neck
            {
                OFFSET 0.0 8.0 0.0
                CHANNELS 3 Zrotation Xrotation Yrotation
                JOINT Head
                {
                    OFFSET 0.0 5.0 0.0
                    CHANNELS 3 Zrotation Xrotation Yrotation
                    End Site
                    {
                        OFFSET 0.0 3.0 0.0
                    }
                }
            }
            JOINT LeftShoulder
            {
                OFFSET -5.0 0.0 0.0
                CHANNELS 3 Zrotation Xrotation Yrotation
                JOINT LeftArm
                {
                    OFFSET 0.0 -10.0 0.0
                    CHANNELS 3 Zrotation Xrotation Yrotation
                    JOINT LeftForeArm
                    {
                        OFFSET 0.0 -10.0 0.0
                        CHANNELS 3 Zrotation Xrotation Yrotation
                        End Site
                        {
                            OFFSET 0.0 -3.0 0.0
                        }
                    }
                }
            }
        }
    }
}

MOTION
Frames: 37
Frame Time: 0.033333
960.000000 445.000000 95.102324 0.000000 0.000000 0.000000 0.000000 0.000000 0.000000 23.025492 23.497470 0.000000 180.000000 -19.046122 0.000000 21.801409 4.754131 -0.000000 158.198591 -5.963788 30.000000 15.945396 1.609878 0.000000 18.000000 0.035800 0.000000
1691.525230 140.756605 105.730484 0.000000 0.000000 0.000000 0.000000 0.000000 0.000000 -163.376529 2.992811 4.973798 16.623471 -6.236715 4.973798 -171.853121 -3.143709 3.759997 99.744051 -12.879240 29.763441 -171.126653 -3.483933 -3.759997 0.673538 0.420050 0.313953
1636.048050 128.802021 109.482608 0.000000 0.000000 0.000000 0.000000 0.000000 0.000000 157.904128 24.951619 9.635073 -22.095872 8.143699 9.635073 -171.936471 -4.494137 7.460697 -143.675701 -12.106826 29.057495 -173.500805 -3.743266 -7.460697 0.570999 0.457868 0.626666
1578.156967 80.474526 113.210237 0.000000 0.000000 0.000000 0.000000 0.000000 0.000000 -139.519796 10.247486 13.690942 40.480204 1.691719 13.690942 -174.507724 -3.748248 11.043737 119.111399 2.627528 27.893295 -173.607258 -4.044760 -11.043737 0.461920 0.462136 0.936907
960.418757 444.998421 129.528635 0.000000 0.000000 0.000000 0.000000 0.000000 0.000000 25.077893 -29.914961 16.886559 180.000000 -1.181028 16.886559 23.861935 14.040905 14.452610 156.138065 -3.074047 26.289200 17.903699 6.056305 -14.452610 18.000000 -0.526787 1.243449
960.523360 444.997533 123.725084 0.000000 0.000000 0.000000 0.000000 0.000000 0.000000 25.638906 -2.850214 19.021130 180.000000 5.129414 19.021130 24.425035 -15.856767 17.633558 155.574965 -10.063940 24.270510 18.452907 2.415579 -17.633558 18.000000 0.375664 1.545085
960.627905 444.996447 121.993895 0.000000 0.000000 0.000000 0.000000 0.000000 0.000000 26.219073 36.416457 19.960535 180.000000 -13.411010 19.960535 25.006291 9.914194 20.536413 154.993709 -14.181974 21.869059 19.024920 4.276394 -20.536413 18.000000 0.206758 1.840623
1126.242828 420.359820 135.549665 0.000000 0.000000 0.000000 0.000000 0.000000 0.000000 31.410514 0.720511 19.645745 -148.589486 2.000871 19.645745 32.280463 -0.425254 23.115397 -131.603972 2.108988 19.122720 45.585331 -2.128083 -23.115397 -13.449727 0.290005 2.128896
1257.895088 650.549197 148.191484 0.000000 0.000000 0.000000 0.000000 0.000000 0.000000 25.073180 -0.850350 18.096541 -154.926820 -1.677152 18.096541 46.260945 3.426926 25.329838 -154.651428 -5.477349 16.074804 27.339487 4.920014 -25.329838 -13.619892 1.663498 2.408768
960.941083 444.992008 130.081671 0.000000 0.000000 0.000000 0.000000 0.000000 0.000000 28.072001 17.400366 15.410265 180.000000 1.370983 15.410265 26.849221 -12.646118 27.144812 153.150779 12.231829 12.773379 20.864045 -2.722380 -27.144812 18.000000 -0.627870 2.679134
1163.815842 547.748709 158.873824 0.000000 0.000000 0.000000 0.000000 0.000000 0.000000 117.162728 10.122211 11.755705 -62.837272 -2.599256 11.755705 102.363764 3.876005 28.531695 -47.376450 1.341586 9.270510 104.768601 -2.719799 -28.531695 -6.003489 0.004341 2.938926
961.149372 444.988063 125.929840 0.000000 0.000000 0.000000 0.000000 0.000000 0.000000 29.395983 14.046746 7.362491 180.000000 -3.287750 7.362491 28.146217 1.031807 29.468618 151.853783 11.092817 5.621439 22.170006 -5.961727 -29.468618 18.000000 0.122883 3.187120
1136.717377 590.104480 146.088427 0.000000 0.000000 0.000000 0.000000 0.000000 0.000000 115.752126 0.080775 2.506665 -64.247874 -5.683176 2.506665 73.638146 9.513117 29.940802 -21.842452 0.545006 1.883716 75.369282 -2.403562 -29.940802 -6.767207 0.183111 3.422736
1163.079758 634.077559 162.251506 0.000000 0.000000 0.000000 0.000000 0.000000 0.000000 132.174340 -4.438225 -2.506665 -47.825660 -2.155390 -2.506665 94.255711 4.411459 29.940802 -149.364979 -7.214445 -1.883716 30.021641 6.008337 -29.940802 -5.096180 -0.952656 3.644843
961.460830 444.980668 166.117799 0.000000 0.000000 0.000000 0.000000 0.000000 0.000000 31.497152 9.582455 -7.362491 180.000000 -18.716494 -7.362491 30.152455 11.926253 29.468618 149.847545 0.989429 -5.621439 24.175589 -4.626698 -29.468618 18.000000 0.002900 3.852566
1097.449951 565.089898 154.468259 0.000000 0.000000 0.000000 0.000000 0.000000 0.000000 -119.219568 -0.106149 -11.755705 60.780432 -5.235284 -11.755705 -150.180642 -6.577741 28.531695 48.804955 -3.472743 -9.270510 -149.874178 -5.922958 -28.531695 2.713854 0.583440 4.045085
1114.140244 528.302071 147.633712 0.000000 0.000000 0.000000 0.000000 0.000000 0.000000 -142.671523 -6.386871 -15.410265 37.328477 -1.170762 -15.410265 -177.395681 0.111209 27.144812 34.687329 0.634246 -12.773379 161.894167 0.862834 -27.144812 -0.910956 0.037584 4.221640
1116.433640 479.728639 156.289622 0.000000 0.000000 0.000000 0.000000 0.000000 0.000000 -102.267481 9.222004 -18.096541 77.732519 -7.879949 -18.096541 -163.695626 8.449535 25.329838 38.575767 1.789738 -16.074804 -176.001122 -1.210540 -25.329838 0.706594 -0.155846 4.381533
1135.931282 466.493965 155.049990 0.000000 0.000000 0.000000 0.000000 0.000000 0.000000 -112.868406 11.840147 -19.645745 67.131594 -9.704435 -19.645745 -159.517862 3.723634 23.115397 36.204678 -3.754926 -19.122720 -154.426613 -5.786259 -23.115397 2.428729 0.578051 4.524135
1141.618767 467.420679 147.934992 0.000000 0.000000 0.000000 0.000000 0.000000 0.000000 -123.086385 1.317663 -19.960535 56.913615 -6.836772 -19.960535 -154.885724 -0.453459 20.536413 36.481623 0.606127 -21.869059 -153.965441 -6.532497 -20.536413 2.446728 0.511518 4.648882
1150.647926 469.370956 142.779298 0.000000 0.000000 0.000000 0.000000 0.000000 0.000000 -43.953779 20.496684 -19.021130 136.046221 -18.452466 -19.021130 -154.327268 -7.384440 17.633558 60.745168 -7.291682 -24.270510 -153.350642 -6.874252 -17.633558 2.386216 0.654291 4.755283
1151.529922 496.420240 137.547116 0.000000 0.000000 0.000000 0.000000 0.000000 0.000000 -116.362129 0.656477 -16.886559 63.637871 -11.418853 -16.886559 -149.081043 0.864881 14.452610 35.941860 -1.695073 -26.289200 -156.847177 0.544081 -14.452610 2.056513 0.066810 4.842916
1148.402367 515.713574 123.455283 0.000000 0.000000 0.000000 0.000000 0.000000 0.000000 -118.252650 -0.169573 -13.690942 61.747350 -2.748077 -13.690942 -138.082896 1.527005 11.043737 -156.312677 -7.425581 -27.893295 21.649626 9.140975 -11.043737 2.962417 0.137214 4.911436
1175.363617 533.368646 136.291330 0.000000 0.000000 0.000000 0.000000 0.000000 0.000000 -95.476638 4.933612 -9.635073 84.523362 4.060131 -9.635073 -113.907461 -3.085508 7.460697 -155.995907 -6.957751 -29.057495 12.512064 8.599344 -7.460697 -16.748794 -0.859934 4.960574
1199.533310 485.991104 122.837285 0.000000 0.000000 0.000000 0.000000 0.000000 0.000000 -100.003195 -4.282934 -4.973798 79.996805 -7.119283 -4.973798 -86.083188 5.797809 3.759997 38.843754 -1.088765 -29.763441 -106.539452 0.029677 -3.759997 6.197806 0.058396 4.990134
962.588190 444.938442 132.781607 0.000000 0.000000 0.000000 0.000000 0.000000 0.000000 39.579754 -31.035730 -0.000000 180.000000 8.760053 -0.000000 36.680773 5.390665 0.000000 143.319227 13.492925 -30.000000 29.388385 -6.968377 -0.000000 18.000000 -0.571722 5.000000
1142.094727 445.716287 117.036237 0.000000 0.000000 0.000000 0.000000 0.000000 0.000000 -140.228454 -6.291883 4.973798 39.771546 12.987322 4.973798 -156.118008 -6.239907 -3.759997 3.479189 -3.232418 -29.763441 -158.005660 -5.384095 3.759997 2.150019 0.631904 4.990134
1164.005928 424.847746 117.628327 0.000000 0.000000 0.000000 0.000000 0.000000 0.000000 -84.241076 47.847525 9.635073 95.758924 -47.300613 9.635073 -156.181584 -5.760277 -7.460697 166.928360 -14.198042 -29.057495 -154.947270 -6.391261 7.460697 2.644196 0.635762 4.960574
1124.208755 418.286655 134.787962 0.000000 0.000000 0.000000 0.000000 0.000000 0.000000 -117.427077 19.272636 13.690942 62.572923 27.096540 13.690942 -155.943063 -6.380970 -11.043737 14.023837 -1.176918 -27.893295 -157.382674 -5.377548 11.043737 2.188130 0.529226 4.911436
962.990408 444.917226 114.358977 0.000000 0.000000 0.000000 0.000000 0.000000 0.000000 42.110883 39.692511 16.886559 180.000000 4.576344 16.886559 37.946959 -8.030920 -14.452610 142.053041 21.552997 -26.289200 29.293612 -16.154859 14.452610 18.000000 -0.813240 4.842916
963.090170 444.911436 99.525341 0.000000 0.000000 0.000000 0.000000 0.000000 0.000000 42.659200 -51.870423 19.021130 180.000000 4.639960 19.021130 38.119107 11.278157 -17.633558 141.880893 -14.155781 -24.270510 29.068887 11.273009 17.633558 18.000000 0.774594 4.755283
1186.646461 396.272757 96.987470 0.000000 0.000000 0.000000 0.000000 0.000000 0.000000 -72.847419 -24.994373 19.960535 107.152581 12.969815 19.960535 -156.703603 -4.634439 -20.536413 178.447294 16.004121 -21.869059 -157.212393 -5.612920 20.536413 1.964058 0.459232 4.648882
1313.051605 426.636125 100.325553 0.000000 0.000000 0.000000 0.000000 0.000000 0.000000 90.994869 -5.897038 19.645745 -89.005131 18.561991 19.645745 -160.515303 -4.433790 -23.115397 -153.248861 2.289505 -19.122720 -159.640525 -4.633025 23.115397 0.000000 0.000000 0.000000
1347.999344 420.772226 83.075513 0.000000 0.000000 0.000000 0.000000 0.000000 0.000000 90.154351 19.492422 18.096541 -89.845649 -18.747188 18.096541 -162.053401 -3.355767 -25.329838 -136.198880 -4.914765 -16.074804 -160.991694 -4.942231 25.329838 0.000000 0.000000 0.000000
1344.315948 421.031681 92.544869 0.000000 0.000000 0.000000 0.000000 0.000000 0.000000 69.757587 1.817064 15.410265 -110.242413 11.639653 15.410265 25.616746 -4.160946 -27.144812 -157.821005 -3.319914 -12.773379 17.214985 2.905638 27.144812 -16.704706 0.132042 4.221640
1350.307617 440.309436 83.170009 0.000000 0.000000 0.000000 0.000000 0.000000 0.000000 71.124018 -2.508394 11.755705 -108.875982 -9.462237 11.755705 42.739987 2.826368 -28.531695 -142.315466 1.998368 -9.270510 16.600926 -0.271475 28.531695 -16.660102 -0.074173 4.045085
1357.685051 430.688889 84.396416 0.000000 0.000000 0.000000 0.000000 0.000000 0.000000 77.656077 -0.411462 7.362491 -102.343923 11.810289 7.362491 39.407151 -10.065064 -29.468618 -136.343173 1.395784 -5.621439 22.144452 1.235496 29.468618 -16.305135 -0.080147 3.852566
